<svg xmlns="http://www.w3.org/2000/svg" viewBox="0 0 64 64">
  <defs>
    <linearGradient id="qtb-spark" x1="0" y1="0" x2="1" y2="1">
      <stop offset="0%" stop-color="#f59e0b"/>
      <stop offset="50%" stop-color="#d946ef"/>
      <stop offset="100%" stop-color="#10b981"/>
    </linearGradient>
  </defs>
  <rect x="2" y="2" width="60" height="60" rx="15" fill="#0a0a0a"/>
  <path transform="translate(13.25 13.5) scale(0.125)" fill="#ffffff" d="M150 2 193 46h62v61l43 43-43 44v61h-62l-42 42h-2l-31-32v-2l41-41h2l31 32 2-4v-56h61l-42-43 42-42h-61V47l-43 42-44-42v60l-61 1 42 43-42 43v1h62l63-64v60l-64 65H44v-62L2 151v-2l42-42V46h62l43 3z"/>
  <circle cx="51" cy="12.5" r="4" fill="url(#qtb-spark)"/>
</svg>
